<svg width="21" height="21" viewBox="0 0 21 21" fill="none" xmlns="http://www.w3.org/2000/svg">
<path d="M10.4563 20.9563C4.68125 20.9563 0 16.275 0 10.5C0 4.72501 4.68125 0.0437622 10.4563 0.0437622C16.2313 0.0437622 20.9125 4.72501 20.9125 10.5C20.9125 16.275 16.2313 20.9563 10.4563 20.9563ZM10.4563 1.18126C5.3375 1.18126 1.1375 5.38126 1.1375 10.5C1.1375 15.6188 5.3375 19.8188 10.4563 19.8188C15.575 19.8188 19.775 15.6188 19.775 10.5C19.775 5.38126 15.575 1.18126 10.4563 1.18126Z" fill="white"/>
<path d="M10.2375 16.4937L9.44995 15.6625L14.5687 10.5L9.44995 5.33749L10.2375 4.50623L16.2312 10.5L10.2375 16.4937Z" fill="white"/>
<path d="M15.4 11.1125H4.90002V9.88751H15.4V11.1125Z" fill="white"/>
</svg>
