<svg width="33" height="17" viewBox="0 0 33 17" fill="none" xmlns="http://www.w3.org/2000/svg">
<path d="M32.5002 12.8893L29.5928 1.0023V0.896799C29.5956 0.838222 29.5956 0.779533 29.5928 0.720956L29.4379 0.474777C29.3936 0.438294 29.3532 0.397024 29.3175 0.351686L29.0594 0.175844H28.9218C28.7431 0.0709338 28.5427 0.0106808 28.3369 6.61873e-07H5.59326C4.92014 -0.000450409 4.26629 0.229667 3.73615 0.653599C3.206 1.07753 2.83013 1.67082 2.66859 2.33871L0.087994 12.8893C-0.0216933 13.3428 -0.0289319 13.8158 0.066827 14.2726C0.162586 14.7293 0.358829 15.1578 0.640679 15.5256C0.922529 15.8933 1.28259 16.1906 1.69356 16.395C2.10453 16.5993 2.55564 16.7054 3.01267 16.7051H29.5756C30.0326 16.7054 30.4837 16.5993 30.8947 16.395C31.3056 16.1906 31.6657 15.8933 31.9475 15.5256C32.2294 15.1578 32.4256 14.7293 32.5214 14.2726C32.6171 13.8158 32.6099 13.3428 32.5002 12.8893ZM2.66859 13.8916C2.64238 13.8337 2.62881 13.7707 2.62881 13.7069C2.62881 13.6432 2.64238 13.5802 2.66859 13.5223L5.24918 2.97174C5.27458 2.87857 5.32823 2.79604 5.40242 2.736C5.47661 2.67597 5.56752 2.64153 5.66207 2.63764H26.6165L23.8122 14.0674H3.01267C2.94566 14.0689 2.87931 14.0536 2.81937 14.023C2.75942 13.9923 2.70767 13.9472 2.66859 13.8916ZM29.9196 13.8916C29.8806 13.9472 29.8288 13.9923 29.7689 14.023C29.7089 14.0536 29.6426 14.0689 29.5756 14.0674H26.6165L28.3369 6.75236L30.0573 13.5223C30.0641 13.5906 30.0552 13.6595 30.0313 13.7236C30.0074 13.7878 29.9692 13.8453 29.9196 13.8916Z" fill="white"/>
<path d="M21.4553 5.27527H9.41255C9.07034 5.27527 8.74215 5.41422 8.50017 5.66154C8.25819 5.90887 8.12225 6.24432 8.12225 6.59409C8.12225 6.94386 8.25819 7.27931 8.50017 7.52664C8.74215 7.77396 9.07034 7.91291 9.41255 7.91291H21.4553C21.7975 7.91291 22.1257 7.77396 22.3677 7.52664C22.6097 7.27931 22.7456 6.94386 22.7456 6.59409C22.7456 6.24432 22.6097 5.90887 22.3677 5.66154C22.1257 5.41422 21.7975 5.27527 21.4553 5.27527ZM19.7349 8.79212H7.69215C7.34994 8.79212 7.02175 8.93107 6.77977 9.1784C6.5378 9.42573 6.40186 9.76117 6.40186 10.1109C6.40186 10.4607 6.5378 10.7962 6.77977 11.0435C7.02175 11.2908 7.34994 11.4298 7.69215 11.4298H19.7349C20.0771 11.4298 20.4053 11.2908 20.6473 11.0435C20.8893 10.7962 21.0252 10.4607 21.0252 10.1109C21.0252 9.76117 20.8893 9.42573 20.6473 9.1784C20.4053 8.93107 20.0771 8.79212 19.7349 8.79212Z" fill="white"/>
</svg>
